<svg width="446" height="286" viewBox="0 0 446 286" fill="none" xmlns="http://www.w3.org/2000/svg">
<path d="M47.5006 18.5767L52.9333 26.5524C50.4903 27.9971 47.5068 30.489 43.9828 34.0283C40.671 37.4648 37.5373 41.4044 34.5816 45.8469C31.6259 50.2894 29.4848 54.9269 28.1581 59.7592C29.3695 59.8273 30.3962 59.9195 31.2381 60.0357C32.2921 60.0491 33.2914 60.22 34.2359 60.5483C37.6994 61.7521 40.2014 63.9451 41.7421 67.1273C43.4949 70.2067 43.66 73.793 42.2373 77.8862C40.6505 82.4516 38.0265 85.6861 34.3653 87.5896C30.7588 89.3357 26.909 89.4974 22.8158 88.0748C16.8336 85.9955 13.0342 82.2047 11.4177 76.7023C9.80121 71.2 10.0873 65.3002 12.276 59.0031C13.8081 54.5951 16.2401 49.8823 19.5721 44.8648C23.1162 39.7445 27.2901 34.8431 32.0936 30.1606C36.9519 25.3207 42.0875 21.4594 47.5006 18.5767ZM90.9509 33.6788L96.3836 41.6544C93.9406 43.0991 90.9571 45.5911 87.4331 49.1303C84.1213 52.5669 80.9876 56.5064 78.0319 60.9489C75.0762 65.3915 72.9351 70.0289 71.6084 74.8612C72.8198 74.9294 73.8465 75.0215 74.6884 75.1377C75.7424 75.1511 76.7416 75.322 77.6862 75.6503C81.1496 76.8541 83.6517 79.0471 85.1924 82.2293C86.9452 85.3088 87.1103 88.8951 85.6876 92.9882C84.1008 97.5537 81.4768 100.788 77.8156 102.692C74.2091 104.438 70.3593 104.599 66.2661 103.177C60.2839 101.098 56.4845 97.3067 54.868 91.8044C53.2515 86.302 53.5376 80.4023 55.7263 74.1051C57.2584 69.6971 59.6904 64.9843 63.0224 59.9668C66.5665 54.8465 70.7404 49.9452 75.5439 45.2626C80.4022 40.4227 85.5378 36.5614 90.9509 33.6788Z" fill="url(#paint0_linear_43_2)"/>
<defs>
<linearGradient id="paint0_linear_43_2" x1="70.9416" y1="14.1166" x2="-247.985" y2="332.507" gradientUnits="userSpaceOnUse">
<stop stop-color="#FCFCFC" stop-opacity="0"/>
<stop offset="1" stop-color="white" stop-opacity="0.5"/>
</linearGradient>
</defs>
</svg>
